<?xml version="1.0" encoding="UTF-8" standalone="no"?>
<!DOCTYPE svg PUBLIC "-//W3C//DTD SVG 1.1//EN"
 "http://www.w3.org/Graphics/SVG/1.1/DTD/svg11.dtd">
<!-- Generated by graphviz version 12.2.1 (20241206.2353)
 -->
<!-- Title: SPP Pages: 1 -->
<svg width="430pt" height="223pt"
 viewBox="0.00 0.00 430.20 223.10" xmlns="http://www.w3.org/2000/svg" xmlns:xlink="http://www.w3.org/1999/xlink">
<g id="graph0" class="graph" transform="scale(1 1) rotate(0) translate(4 219.1)">
<title>SPP</title>
<polygon fill="white" stroke="none" points="-4,4 -4,-219.1 426.2,-219.1 426.2,4 -4,4"/>
<!-- node21 -->
<g id="node1" class="node">
<title>node21</title>
<ellipse fill="black" stroke="black" cx="188.6" cy="-211.5" rx="3.6" ry="3.6"/>
</g>
<!-- node20 -->
<g id="node2" class="node">
<title>node20</title>
<ellipse fill="black" stroke="black" cx="220.6" cy="-151.8" rx="3.6" ry="3.6"/>
</g>
<!-- node21&#45;&gt;node20 -->
<g id="edge1" class="edge">
<title>node21&#45;&gt;node20</title>
<path fill="none" stroke="black" d="M190.14,-207.72C194.31,-200.2 205.99,-179.14 213.62,-165.39"/>
<polygon fill="black" stroke="black" points="216.62,-167.19 218.41,-156.75 210.5,-163.79 216.62,-167.19"/>
<text text-anchor="middle" x="212.91" y="-176.6" font-family="Times,serif" font-size="14.00">ff</text>
</g>
<!-- node14 -->
<g id="node3" class="node">
<title>node14</title>
<ellipse fill="black" stroke="black" cx="65.6" cy="-151.8" rx="3.6" ry="3.6"/>
</g>
<!-- node21&#45;&gt;node14 -->
<g id="edge2" class="edge">
<title>node21&#45;&gt;node14</title>
<path fill="none" stroke="black" d="M185.56,-209.07C170.87,-202.18 106.8,-172.13 78.79,-158.99"/>
<polygon fill="black" stroke="black" points="80.44,-155.9 69.9,-154.82 77.47,-162.23 80.44,-155.9"/>
<text text-anchor="middle" x="145.48" y="-176.6" font-family="Times,serif" font-size="14.00">tt</text>
</g>
<!-- node19 -->
<g id="node4" class="node">
<title>node19</title>
<ellipse fill="black" stroke="black" cx="357.6" cy="-151.8" rx="3.6" ry="3.6"/>
</g>
<!-- node21&#45;&gt;node19 -->
<g id="edge3" class="edge">
<title>node21&#45;&gt;node19</title>
<path fill="none" stroke="black" d="M191.83,-209.4C210.68,-202.96 307.08,-170.05 343.57,-157.59"/>
<polygon fill="black" stroke="black" points="344.58,-160.95 352.91,-154.4 342.31,-154.32 344.58,-160.95"/>
<text text-anchor="middle" x="297.33" y="-176.6" font-family="Times,serif" font-size="14.00">ft</text>
</g>
<!-- node16 -->
<g id="node5" class="node">
<title>node16</title>
<ellipse fill="black" stroke="black" cx="173.6" cy="-151.8" rx="3.6" ry="3.6"/>
</g>
<!-- node21&#45;&gt;node16 -->
<g id="edge4" class="edge">
<title>node21&#45;&gt;node16</title>
<path fill="none" stroke="black" d="M187.88,-207.72C185.98,-200.42 180.77,-180.37 177.19,-166.63"/>
<polygon fill="black" stroke="black" points="180.64,-165.95 174.73,-157.16 173.86,-167.71 180.64,-165.95"/>
<text text-anchor="middle" x="187.01" y="-176.6" font-family="Times,serif" font-size="14.00">tf</text>
</g>
<!-- node11 -->
<g id="node7" class="node">
<title>node11</title>
<ellipse fill="black" stroke="black" cx="101.6" cy="-92.1" rx="3.6" ry="3.6"/>
</g>
<!-- node20&#45;&gt;node11 -->
<g id="edge25" class="edge">
<title>node20&#45;&gt;node11</title>
<path fill="none" stroke="black" d="M217.77,-148.89C212.44,-145.27 200.53,-137.17 190.6,-130.2 180.3,-122.97 178.86,-119.31 167.6,-113.7 150.68,-105.27 129.6,-99.41 115.88,-96.16"/>
<polygon fill="black" stroke="black" points="117.04,-92.83 106.52,-94.09 115.53,-99.66 117.04,-92.83"/>
<text text-anchor="middle" x="195.1" y="-116.9" font-family="Times,serif" font-size="14.00">ff</text>
</g>
<!-- node15 -->
<g id="node11" class="node">
<title>node15</title>
<ellipse fill="black" stroke="black" cx="236.6" cy="-92.1" rx="3.6" ry="3.6"/>
</g>
<!-- node20&#45;&gt;node15 -->
<g id="edge24" class="edge">
<title>node20&#45;&gt;node15</title>
<path fill="none" stroke="black" d="M222.15,-148.24C224.38,-144.44 228.44,-137.02 230.6,-130.2 232.94,-122.81 234.39,-114.3 235.29,-107.29"/>
<polygon fill="black" stroke="black" points="238.77,-107.67 236.28,-97.37 231.8,-106.97 238.77,-107.67"/>
<text text-anchor="middle" x="238.41" y="-116.9" font-family="Times,serif" font-size="14.00">tf</text>
</g>
<!-- node8 -->
<g id="node14" class="node">
<title>node8</title>
<ellipse fill="black" stroke="black" cx="303.6" cy="-92.1" rx="3.6" ry="3.6"/>
</g>
<!-- node20&#45;&gt;node8 -->
<g id="edge23" class="edge">
<title>node20&#45;&gt;node8</title>
<path fill="none" stroke="black" d="M224.51,-150.9C236.49,-150.99 273.02,-149.6 292.6,-130.2 298.69,-124.17 301.44,-114.95 302.67,-107.2"/>
<polygon fill="black" stroke="black" points="306.14,-107.64 303.5,-97.38 299.17,-107.05 306.14,-107.64"/>
<text text-anchor="middle" x="311.01" y="-116.9" font-family="Times,serif" font-size="14.00">tt,ft</text>
</g>
<!-- node5 -->
<g id="node6" class="node">
<title>node5</title>
<ellipse fill="black" stroke="black" cx="159.6" cy="-92.1" rx="3.6" ry="3.6"/>
</g>
<!-- node14&#45;&gt;node5 -->
<g id="edge5" class="edge">
<title>node14&#45;&gt;node5</title>
<path fill="none" stroke="black" d="M68.58,-149.42C75.32,-146.28 92.19,-138.22 105.6,-130.2 120.8,-121.11 137.48,-109.36 148.23,-101.54"/>
<polygon fill="black" stroke="black" points="150.01,-104.57 155.98,-95.81 145.86,-98.94 150.01,-104.57"/>
<text text-anchor="middle" x="133.87" y="-116.9" font-family="Times,serif" font-size="14.00">tf</text>
</g>
<!-- node14&#45;&gt;node11 -->
<g id="edge6" class="edge">
<title>node14&#45;&gt;node11</title>
<path fill="none" stroke="black" d="M64.95,-147.84C63.65,-141.18 61.42,-124.75 68.1,-113.7 72.48,-106.45 80.48,-101.39 87.56,-98.1"/>
<polygon fill="black" stroke="black" points="88.58,-101.46 96.67,-94.62 86.08,-94.92 88.58,-101.46"/>
<text text-anchor="middle" x="71.85" y="-116.9" font-family="Times,serif" font-size="14.00">tt</text>
</g>
<!-- node12 -->
<g id="node8" class="node">
<title>node12</title>
<ellipse fill="black" stroke="black" cx="3.6" cy="-92.1" rx="3.6" ry="3.6"/>
</g>
<!-- node14&#45;&gt;node12 -->
<g id="edge7" class="edge">
<title>node14&#45;&gt;node12</title>
<path fill="none" stroke="black" d="M62.3,-150.14C54.13,-148.35 32.78,-142.67 20.35,-130.2 13.91,-123.74 9.7,-114.36 7.12,-106.65"/>
<polygon fill="black" stroke="black" points="10.56,-105.98 4.53,-97.27 3.82,-107.84 10.56,-105.98"/>
<text text-anchor="middle" x="24.47" y="-116.9" font-family="Times,serif" font-size="14.00">ft</text>
</g>
<!-- node13 -->
<g id="node9" class="node">
<title>node13</title>
<ellipse fill="black" stroke="black" cx="42.6" cy="-92.1" rx="3.6" ry="3.6"/>
</g>
<!-- node14&#45;&gt;node13 -->
<g id="edge8" class="edge">
<title>node14&#45;&gt;node13</title>
<path fill="none" stroke="black" d="M62.28,-149.78C55.58,-147.51 40.58,-141.36 34.6,-130.2 30.53,-122.61 32.7,-113.1 35.8,-105.61"/>
<polygon fill="black" stroke="black" points="38.79,-107.44 40.26,-96.95 32.57,-104.24 38.79,-107.44"/>
<text text-anchor="middle" x="39.1" y="-116.9" font-family="Times,serif" font-size="14.00">ff</text>
</g>
<!-- node19&#45;&gt;node5 -->
<g id="edge19" class="edge">
<title>node19&#45;&gt;node5</title>
<path fill="none" stroke="black" d="M353.98,-149.92C343.41,-147.3 311.69,-139.2 286.1,-130.2 268.15,-123.89 264.69,-119.58 246.6,-113.7 221.8,-105.64 192.07,-99.29 174.57,-95.87"/>
<polygon fill="black" stroke="black" points="175.27,-92.44 164.79,-94.03 173.97,-99.32 175.27,-92.44"/>
<text text-anchor="middle" x="289.85" y="-116.9" font-family="Times,serif" font-size="14.00">tt</text>
</g>
<!-- node19&#45;&gt;node15 -->
<g id="edge18" class="edge">
<title>node19&#45;&gt;node15</title>
<path fill="none" stroke="black" d="M356.18,-148.34C352.16,-141.63 340.01,-122.87 324.6,-113.7 301.51,-99.95 269.92,-95.38 251.55,-93.86"/>
<polygon fill="black" stroke="black" points="251.94,-90.38 241.75,-93.27 251.52,-97.36 251.94,-90.38"/>
<text text-anchor="middle" x="346.86" y="-116.9" font-family="Times,serif" font-size="14.00">tf</text>
</g>
<!-- node17 -->
<g id="node12" class="node">
<title>node17</title>
<ellipse fill="black" stroke="black" cx="378.6" cy="-92.1" rx="3.6" ry="3.6"/>
</g>
<!-- node19&#45;&gt;node17 -->
<g id="edge17" class="edge">
<title>node19&#45;&gt;node17</title>
<path fill="none" stroke="black" d="M358.85,-148.17C360.67,-144.28 364.11,-136.77 366.6,-130.2 369.52,-122.49 372.38,-113.71 374.58,-106.63"/>
<polygon fill="black" stroke="black" points="377.86,-107.87 377.38,-97.28 371.16,-105.85 377.86,-107.87"/>
<text text-anchor="middle" x="376.35" y="-116.9" font-family="Times,serif" font-size="14.00">ft</text>
</g>
<!-- node18 -->
<g id="node13" class="node">
<title>node18</title>
<ellipse fill="black" stroke="black" cx="418.6" cy="-92.1" rx="3.6" ry="3.6"/>
</g>
<!-- node19&#45;&gt;node18 -->
<g id="edge20" class="edge">
<title>node19&#45;&gt;node18</title>
<path fill="none" stroke="black" d="M360.25,-149.01C365.23,-145.61 376.24,-137.84 384.6,-130.2 393.54,-122.03 402.77,-111.83 409.35,-104.19"/>
<polygon fill="black" stroke="black" points="411.86,-106.65 415.62,-96.74 406.5,-102.14 411.86,-106.65"/>
<text text-anchor="middle" x="404.65" y="-116.9" font-family="Times,serif" font-size="14.00">ff</text>
</g>
<!-- node16&#45;&gt;node5 -->
<g id="edge13" class="edge">
<title>node16&#45;&gt;node5</title>
<path fill="none" stroke="black" d="M171.72,-148.58C168.81,-144.99 163.32,-137.57 161.1,-130.2 158.89,-122.87 158.41,-114.36 158.53,-107.34"/>
<polygon fill="black" stroke="black" points="162.02,-107.59 159.15,-97.39 155.03,-107.15 162.02,-107.59"/>
<text text-anchor="middle" x="164.85" y="-116.9" font-family="Times,serif" font-size="14.00">tt</text>
</g>
<!-- node16&#45;&gt;node11 -->
<g id="edge14" class="edge">
<title>node16&#45;&gt;node11</title>
<path fill="none" stroke="black" d="M169.61,-151.18C156.7,-152.16 115.93,-153.24 98.35,-130.2 93.29,-123.56 94.16,-114.19 96.26,-106.52"/>
<polygon fill="black" stroke="black" points="99.53,-107.78 99.73,-97.19 92.97,-105.34 99.53,-107.78"/>
<text text-anchor="middle" x="102.47" y="-116.9" font-family="Times,serif" font-size="14.00">tf</text>
</g>
<!-- node16&#45;&gt;node15 -->
<g id="edge15" class="edge">
<title>node16&#45;&gt;node15</title>
<path fill="none" stroke="black" d="M176.12,-148.96C180.85,-145.47 191.35,-137.56 199.6,-130.2 209.31,-121.54 219.71,-110.98 227.01,-103.34"/>
<polygon fill="black" stroke="black" points="229.34,-105.98 233.64,-96.3 224.24,-101.18 229.34,-105.98"/>
<text text-anchor="middle" x="220.38" y="-116.9" font-family="Times,serif" font-size="14.00">ft</text>
</g>
<!-- node1 -->
<g id="node10" class="node">
<title>node1</title>
<polygon fill="lightgreen" stroke="black" points="210.6,-36 156.6,-36 156.6,0 210.6,0 210.6,-36"/>
<text text-anchor="middle" x="183.6" y="-13.32" font-family="Times,serif" font-size="14.00">⊤</text>
</g>
<!-- node5&#45;&gt;node1 -->
<g id="edge10" class="edge">
<title>node5&#45;&gt;node1</title>
<path fill="none" stroke="black" d="M160.51,-88.36C162.78,-81.55 168.88,-63.22 174.24,-47.12"/>
<polygon fill="black" stroke="black" points="177.46,-48.52 177.3,-37.93 170.82,-46.31 177.46,-48.52"/>
<text text-anchor="middle" x="181.72" y="-57.2" font-family="Times,serif" font-size="14.00">tt,ff</text>
</g>
<!-- node11&#45;&gt;node1 -->
<g id="edge11" class="edge">
<title>node11&#45;&gt;node1</title>
<path fill="none" stroke="black" d="M103.23,-88.54C107.35,-82.18 118.74,-65.36 131.1,-54 135.96,-49.53 141.43,-45.23 146.97,-41.27"/>
<polygon fill="black" stroke="black" points="148.71,-44.32 154.99,-35.79 144.76,-38.54 148.71,-44.32"/>
<text text-anchor="middle" x="146.85" y="-57.2" font-family="Times,serif" font-size="14.00">tt,tf,ft</text>
</g>
<!-- node12&#45;&gt;node1 -->
<g id="edge12" class="edge">
<title>node12&#45;&gt;node1</title>
<path fill="none" stroke="black" d="M5.05,-88.65C9.16,-81.95 21.58,-63.21 37.1,-54 70.3,-34.3 113.94,-25.68 144.92,-21.92"/>
<polygon fill="black" stroke="black" points="145.06,-25.42 154.63,-20.86 144.31,-18.46 145.06,-25.42"/>
<text text-anchor="middle" x="46.85" y="-57.2" font-family="Times,serif" font-size="14.00">tt,tf</text>
</g>
<!-- node13&#45;&gt;node1 -->
<g id="edge9" class="edge">
<title>node13&#45;&gt;node1</title>
<path fill="none" stroke="black" d="M44.37,-88.73C49.33,-82.25 64.07,-64.02 80.35,-54 100.25,-41.75 124.97,-33.18 145.23,-27.58"/>
<polygon fill="black" stroke="black" points="146.01,-30.99 154.81,-25.08 144.25,-24.22 146.01,-30.99"/>
<text text-anchor="middle" x="96.47" y="-57.2" font-family="Times,serif" font-size="14.00">tt,ft,ff</text>
</g>
<!-- node15&#45;&gt;node1 -->
<g id="edge16" class="edge">
<title>node15&#45;&gt;node1</title>
<path fill="none" stroke="black" d="M234.84,-88.7C229.87,-81.94 215.3,-62.12 202.96,-45.34"/>
<polygon fill="black" stroke="black" points="206.05,-43.63 197.31,-37.65 200.41,-47.78 206.05,-43.63"/>
<text text-anchor="middle" x="237.44" y="-57.2" font-family="Times,serif" font-size="14.00">tf,ft,ff</text>
</g>
<!-- node17&#45;&gt;node1 -->
<g id="edge22" class="edge">
<title>node17&#45;&gt;node1</title>
<path fill="none" stroke="black" d="M376.46,-89.05C369.82,-82.8 348.66,-63.75 327.6,-54 293.7,-38.3 251.92,-29.15 222.11,-24.17"/>
<polygon fill="black" stroke="black" points="222.84,-20.74 212.41,-22.64 221.75,-27.66 222.84,-20.74"/>
<text text-anchor="middle" x="364.42" y="-57.2" font-family="Times,serif" font-size="14.00">ft,ff</text>
</g>
<!-- node18&#45;&gt;node1 -->
<g id="edge21" class="edge">
<title>node18&#45;&gt;node1</title>
<path fill="none" stroke="black" d="M416.77,-88.6C411.62,-81.79 396.23,-62.79 378.6,-54 328.46,-28.99 263.16,-21.64 222.31,-19.6"/>
<polygon fill="black" stroke="black" points="222.61,-16.11 212.47,-19.2 222.32,-23.1 222.61,-16.11"/>
<text text-anchor="middle" x="404.14" y="-57.2" font-family="Times,serif" font-size="14.00">tf</text>
</g>
<!-- node8&#45;&gt;node1 -->
<g id="edge26" class="edge">
<title>node8&#45;&gt;node1</title>
<path fill="none" stroke="black" d="M301.26,-88.87C294.75,-82.74 275.68,-65.34 257.6,-54 246.15,-46.82 232.99,-40.14 220.97,-34.58"/>
<polygon fill="black" stroke="black" points="222.71,-31.53 212.16,-30.62 219.85,-37.91 222.71,-31.53"/>
<text text-anchor="middle" x="301.95" y="-57.2" font-family="Times,serif" font-size="14.00">tt,tf,ft,ff</text>
</g>
</g>
</svg>
